<mxfile host="app.diagrams.net" modified="2023-12-23T19:27:07.974Z" agent="Mozilla/5.0 (Windows NT 10.0; Win64; x64) AppleWebKit/537.36 (KHTML, like Gecko) Chrome/120.0.0.0 Safari/537.36" etag="Y26Lxv6A8cU5SOv76lZo" version="22.1.11" type="device">
  <diagram name="Sayfa -1" id="70lSYe_JWRifrHvQtnFY">
    <mxGraphModel dx="1674" dy="746" grid="1" gridSize="10" guides="1" tooltips="1" connect="1" arrows="1" fold="1" page="1" pageScale="1" pageWidth="827" pageHeight="1169" math="0" shadow="0">
      <root>
        <mxCell id="0" />
        <mxCell id="1" parent="0" />
        <mxCell id="oC1v92nZx8Xv9-vyl8pP-12" style="edgeStyle=orthogonalEdgeStyle;rounded=0;orthogonalLoop=1;jettySize=auto;html=1;entryX=0.5;entryY=0;entryDx=0;entryDy=0;" edge="1" parent="1" source="oC1v92nZx8Xv9-vyl8pP-1" target="oC1v92nZx8Xv9-vyl8pP-2">
          <mxGeometry relative="1" as="geometry" />
        </mxCell>
        <mxCell id="oC1v92nZx8Xv9-vyl8pP-1" value="Giriş" style="ellipse;whiteSpace=wrap;html=1;" vertex="1" parent="1">
          <mxGeometry x="210" y="20" width="80" height="60" as="geometry" />
        </mxCell>
        <mxCell id="oC1v92nZx8Xv9-vyl8pP-13" style="edgeStyle=orthogonalEdgeStyle;rounded=0;orthogonalLoop=1;jettySize=auto;html=1;entryX=0.5;entryY=0;entryDx=0;entryDy=0;" edge="1" parent="1" source="oC1v92nZx8Xv9-vyl8pP-2" target="oC1v92nZx8Xv9-vyl8pP-3">
          <mxGeometry relative="1" as="geometry" />
        </mxCell>
        <mxCell id="oC1v92nZx8Xv9-vyl8pP-2" value="sayi1, sayi2;" style="shape=parallelogram;perimeter=parallelogramPerimeter;whiteSpace=wrap;html=1;fixedSize=1;" vertex="1" parent="1">
          <mxGeometry x="180" y="130" width="120" height="60" as="geometry" />
        </mxCell>
        <mxCell id="oC1v92nZx8Xv9-vyl8pP-8" style="edgeStyle=orthogonalEdgeStyle;rounded=0;orthogonalLoop=1;jettySize=auto;html=1;exitX=0.5;exitY=1;exitDx=0;exitDy=0;entryX=0.5;entryY=0;entryDx=0;entryDy=0;" edge="1" parent="1" source="oC1v92nZx8Xv9-vyl8pP-3" target="oC1v92nZx8Xv9-vyl8pP-4">
          <mxGeometry relative="1" as="geometry" />
        </mxCell>
        <mxCell id="oC1v92nZx8Xv9-vyl8pP-3" value="bolum = 0" style="rounded=0;whiteSpace=wrap;html=1;" vertex="1" parent="1">
          <mxGeometry x="180" y="230" width="120" height="60" as="geometry" />
        </mxCell>
        <mxCell id="oC1v92nZx8Xv9-vyl8pP-7" style="edgeStyle=orthogonalEdgeStyle;rounded=0;orthogonalLoop=1;jettySize=auto;html=1;exitX=0.5;exitY=1;exitDx=0;exitDy=0;entryX=0.5;entryY=0;entryDx=0;entryDy=0;" edge="1" parent="1" source="oC1v92nZx8Xv9-vyl8pP-4" target="oC1v92nZx8Xv9-vyl8pP-5">
          <mxGeometry relative="1" as="geometry" />
        </mxCell>
        <mxCell id="oC1v92nZx8Xv9-vyl8pP-14" value="EVET" style="edgeLabel;html=1;align=center;verticalAlign=middle;resizable=0;points=[];" vertex="1" connectable="0" parent="oC1v92nZx8Xv9-vyl8pP-7">
          <mxGeometry x="0.24" y="2" relative="1" as="geometry">
            <mxPoint x="-2" y="-11" as="offset" />
          </mxGeometry>
        </mxCell>
        <mxCell id="oC1v92nZx8Xv9-vyl8pP-4" value="sayi1 &amp;gt;= sayi2" style="rhombus;whiteSpace=wrap;html=1;" vertex="1" parent="1">
          <mxGeometry x="180" y="340" width="140" height="80" as="geometry" />
        </mxCell>
        <mxCell id="oC1v92nZx8Xv9-vyl8pP-5" value="sayi1 -= sayi2;&lt;br&gt;bolum++;" style="rounded=0;whiteSpace=wrap;html=1;" vertex="1" parent="1">
          <mxGeometry x="190" y="470" width="120" height="60" as="geometry" />
        </mxCell>
        <mxCell id="oC1v92nZx8Xv9-vyl8pP-6" value="" style="endArrow=classic;html=1;rounded=0;exitX=0;exitY=0.5;exitDx=0;exitDy=0;" edge="1" parent="1" source="oC1v92nZx8Xv9-vyl8pP-5">
          <mxGeometry width="50" height="50" relative="1" as="geometry">
            <mxPoint x="60" y="450" as="sourcePoint" />
            <mxPoint x="240" y="310" as="targetPoint" />
            <Array as="points">
              <mxPoint x="10" y="480" />
            </Array>
          </mxGeometry>
        </mxCell>
        <mxCell id="oC1v92nZx8Xv9-vyl8pP-9" value="bolum = bolum&lt;br&gt;kalan = sayi1" style="shape=document;whiteSpace=wrap;html=1;boundedLbl=1;" vertex="1" parent="1">
          <mxGeometry x="460" y="350" width="120" height="80" as="geometry" />
        </mxCell>
        <mxCell id="oC1v92nZx8Xv9-vyl8pP-10" style="edgeStyle=orthogonalEdgeStyle;rounded=0;orthogonalLoop=1;jettySize=auto;html=1;exitX=1;exitY=0.5;exitDx=0;exitDy=0;entryX=0.017;entryY=0.375;entryDx=0;entryDy=0;entryPerimeter=0;" edge="1" parent="1" source="oC1v92nZx8Xv9-vyl8pP-4" target="oC1v92nZx8Xv9-vyl8pP-9">
          <mxGeometry relative="1" as="geometry" />
        </mxCell>
        <mxCell id="oC1v92nZx8Xv9-vyl8pP-15" value="HAYIR" style="edgeLabel;html=1;align=center;verticalAlign=middle;resizable=0;points=[];" vertex="1" connectable="0" parent="oC1v92nZx8Xv9-vyl8pP-10">
          <mxGeometry x="-0.831" y="-2" relative="1" as="geometry">
            <mxPoint x="18" y="-2" as="offset" />
          </mxGeometry>
        </mxCell>
        <mxCell id="oC1v92nZx8Xv9-vyl8pP-11" value="Bitiş" style="ellipse;whiteSpace=wrap;html=1;" vertex="1" parent="1">
          <mxGeometry x="470" y="460" width="80" height="60" as="geometry" />
        </mxCell>
        <mxCell id="oC1v92nZx8Xv9-vyl8pP-16" style="edgeStyle=orthogonalEdgeStyle;rounded=0;orthogonalLoop=1;jettySize=auto;html=1;entryX=0.6;entryY=0;entryDx=0;entryDy=0;entryPerimeter=0;" edge="1" parent="1" source="oC1v92nZx8Xv9-vyl8pP-9" target="oC1v92nZx8Xv9-vyl8pP-11">
          <mxGeometry relative="1" as="geometry" />
        </mxCell>
      </root>
    </mxGraphModel>
  </diagram>
</mxfile>
